<?xml version="1.0" standalone="no"?>
<!DOCTYPE svg PUBLIC "-//W3C//DTD SVG 20010904//EN"
 "http://www.w3.org/TR/2001/REC-SVG-20010904/DTD/svg10.dtd">
<svg version="1.0" xmlns="http://www.w3.org/2000/svg"
 width="1000.000000pt" height="1000.000000pt" viewBox="0 0 1000.000000 1000.000000"
 preserveAspectRatio="xMidYMid meet">
<metadata>
Created by potrace 1.11, written by Peter Selinger 2001-2013
</metadata>
<g transform="translate(0.000000,1000.000000) scale(0.100000,-0.100000)"
fill="#000000" stroke="none">
<path d="M2000 6460 c-9 -6 -10 -10 -3 -10 6 0 15 5 18 10 8 12 4 12 -15 0z"/>
<path d="M5425 6460 c-3 -6 1 -7 9 -4 18 7 21 14 7 14 -6 0 -13 -4 -16 -10z"/>
<path d="M5493 6455 c0 -8 4 -12 9 -9 5 3 6 10 3 15 -9 13 -12 11 -12 -6z"/>
<path d="M5573 6455 c0 -8 4 -12 9 -9 5 3 6 10 3 15 -9 13 -12 11 -12 -6z"/>
<path d="M7236 6462 c-3 -5 1 -9 9 -9 8 0 12 4 9 9 -3 4 -7 8 -9 8 -2 0 -6 -4
-9 -8z"/>
<path d="M2049 6440 c-1 -8 -1 -19 0 -24 1 -5 -4 -4 -12 2 -8 7 -41 12 -76 11
-55 -1 -61 -4 -61 -23 0 -17 -2 -18 -9 -6 -6 8 -7 18 -4 24 3 5 1 6 -6 2 -6
-4 -9 -12 -5 -17 3 -6 -2 -9 -12 -7 -12 2 -18 -2 -16 -10 1 -8 -2 -11 -8 -7
-6 3 -7 11 -4 17 4 6 0 7 -12 1 -11 -5 -39 -8 -62 -7 -38 1 -45 -2 -54 -25 -6
-14 -11 -29 -10 -33 1 -5 -5 -8 -13 -8 -8 0 -15 -5 -15 -11 0 -5 5 -7 12 -3 7
4 8 3 4 -4 -10 -16 -22 -15 -41 4 -15 16 -16 16 -13 -1 2 -10 -3 -20 -9 -22
-7 -3 -13 0 -13 7 0 6 -5 8 -10 5 -8 -5 -7 -11 1 -21 9 -11 7 -14 -9 -14 -12
0 -24 -5 -28 -11 -4 -8 -9 -7 -16 2 -8 11 -8 10 -4 -4 3 -11 0 -20 -9 -23 -8
-4 -12 -11 -8 -18 4 -6 -2 -4 -12 4 -17 14 -18 13 -11 -5 4 -11 4 -16 0 -12
-4 4 -19 0 -33 -10 -19 -12 -23 -12 -14 -2 10 12 6 14 -27 11 -31 -3 -37 -7
-33 -23 4 -15 1 -18 -11 -13 -12 4 -16 0 -16 -15 0 -16 -6 -21 -26 -21 -21 0
-24 -3 -15 -14 9 -11 8 -15 -4 -20 -9 -3 -13 -2 -10 4 3 5 0 7 -8 4 -9 -3 -13
-13 -10 -25 4 -15 2 -18 -11 -13 -15 6 -22 -10 -17 -38 2 -14 -11 -9 -24 9
-10 13 -13 -83 -13 -476 0 -271 -2 -494 -4 -496 -2 -2 -9 -1 -16 3 -8 6 -12
123 -12 468 -1 367 -4 461 -14 461 -16 0 -15 35 -15 -445 -1 -405 -1 -414 -21
-419 -23 -6 -25 -14 -7 -32 10 -11 10 -13 0 -7 -9 5 -13 -1 -13 -19 0 -18 4
-24 13 -19 6 4 1 -5 -13 -21 -14 -16 -19 -25 -12 -21 19 11 20 -93 0 -105 -7
-4 -6 -8 1 -10 16 -6 18 -382 2 -387 -6 -2 -11 -8 -11 -13 0 -6 5 -7 10 -4 9
6 12 -38 12 -224 0 -34 -5 -57 -14 -62 -10 -6 -8 -9 7 -9 19 -1 19 -1 2 -14
-10 -8 -13 -16 -8 -17 17 -6 16 -126 0 -146 -9 -11 -10 -14 -1 -9 9 5 12 -13
13 -81 2 -321 0 -378 -10 -381 -6 -2 -11 -8 -11 -13 0 -6 5 -7 10 -4 10 6 13
-42 11 -197 l-1 -68 43 0 c325 -4 479 0 494 12 12 9 15 9 9 1 -8 -14 18 -16
201 -13 69 1 104 -3 109 -11 4 -8 3 -9 -4 -5 -7 4 -12 1 -12 -8 0 -9 7 -16 15
-16 8 0 15 -4 15 -10 0 -5 5 -10 11 -10 5 0 7 5 3 12 -4 7 -3 8 5 4 6 -4 9
-11 6 -16 -7 -12 53 -18 65 -6 7 7 10 6 10 -3 0 -7 5 -9 12 -5 14 9 68 11 68
3 0 -3 7 -6 15 -6 8 0 15 4 15 8 0 5 12 4 26 -1 14 -6 23 -6 20 -2 -3 5 31 6
74 4 73 -4 78 -3 74 15 -3 11 3 26 15 37 12 11 21 16 21 11 0 -4 -8 -14 -17
-21 -17 -12 -16 -13 4 -11 12 0 21 4 21 7 -2 25 5 31 35 30 51 -3 59 -1 51 13
-6 10 -4 10 7 0 18 -17 29 -16 29 3 0 8 5 12 10 9 6 -4 7 -11 4 -17 -4 -7 -2
-8 5 -4 6 4 9 12 6 17 -5 7 40 14 68 10 4 0 7 6 7 14 0 8 6 15 14 15 18 0 28
27 13 34 -7 3 -6 5 3 5 32 -2 41 1 34 14 -6 10 -4 10 7 0 18 -17 29 -16 29 2
0 8 7 15 16 15 8 0 12 5 9 11 -4 6 2 13 14 16 13 3 21 13 21 25 0 16 5 19 25
16 14 -3 25 -1 25 4 0 5 5 6 11 3 6 -4 19 2 30 14 12 12 26 18 36 14 10 -4 14
-2 9 5 -3 6 -2 13 3 17 5 3 14 -3 20 -12 9 -16 10 -15 8 5 -1 12 -5 22 -10 22
-4 0 -2 6 5 14 7 8 16 12 20 10 4 -2 9 -1 12 4 3 5 20 7 38 5 18 -1 27 0 21 3
-21 10 -15 22 12 22 13 -1 22 -4 20 -9 -3 -4 0 -11 6 -15 7 -4 9 -3 5 4 -3 6
-2 13 3 17 6 3 8 13 5 23 -5 16 -5 16 9 0 8 -10 20 -18 28 -18 11 0 11 2 -1
10 -11 7 -11 10 -2 10 7 0 10 4 7 10 -3 5 0 7 8 4 8 -3 18 -1 22 5 3 6 1 11
-5 11 -16 0 6 37 30 50 16 8 20 8 20 -4 0 -9 -6 -13 -14 -10 -8 3 -17 1 -20
-5 -4 -5 3 -9 15 -8 12 1 25 11 30 24 6 16 14 21 26 17 15 -5 15 -4 3 5 -12 9
-12 11 2 16 10 4 22 4 28 0 5 -3 10 -4 10 0 0 3 -10 9 -22 14 l-22 8 26 26
c18 18 33 25 44 20 13 -5 16 -3 11 10 -3 9 -3 17 2 17 4 0 6 13 3 29 -2 16 1
37 8 48 10 15 10 13 5 -12 -6 -28 -5 -29 8 -11 8 11 12 28 9 38 -3 14 0 17 12
12 15 -6 16 22 15 305 -1 225 -4 311 -13 311 -6 0 -4 5 4 10 13 8 12 10 -3 10
-16 0 -16 2 -1 28 14 24 14 25 0 8 -12 -15 -16 -16 -17 -5 0 8 -2 24 -3 37 -2
12 2 22 8 22 8 0 8 2 0 8 -6 4 -10 20 -10 35 2 25 0 27 -11 11 -11 -16 -13
-12 -13 25 0 30 -3 40 -12 36 -7 -4 -5 0 5 8 12 10 14 17 8 22 -6 3 -11 1 -11
-5 0 -21 -25 -4 -26 17 -1 11 -4 25 -8 32 -4 6 -2 11 5 11 7 0 9 3 6 6 -4 4
-14 1 -22 -6 -9 -7 -15 -9 -14 -4 5 30 -2 53 -16 48 -11 -4 -15 1 -16 17 0 23
-1 23 -9 4 -8 -18 -9 -18 -9 -2 -1 11 -5 15 -13 11 -8 -5 -9 0 -6 14 5 17 2
22 -14 22 -14 0 -18 5 -14 15 7 20 -4 19 -20 -2 -12 -15 -13 -15 -8 -2 3 10
-1 19 -10 22 -9 4 -16 2 -16 -3 0 -5 -7 -7 -15 -4 -14 6 -13 8 2 20 16 12 15
13 -14 14 -26 0 -31 3 -28 20 2 11 -1 20 -6 20 -16 0 -39 27 -31 36 4 5 0 3
-8 -3 -9 -7 -21 -8 -29 -4 -10 6 -9 10 4 15 9 3 13 11 10 16 -6 9 -8 104 -3
151 1 12 12 17 37 18 69 2 68 1 61 42 -4 21 -5 41 -2 43 7 7 3 356 -4 367 -3
5 1 9 8 9 10 0 9 3 -2 10 -9 6 -17 5 -22 -3 -5 -8 -8 -6 -8 6 0 10 -6 20 -13
23 -12 4 -18 33 -18 87 0 16 -11 22 -33 18 -5 -1 -4 5 4 13 10 14 10 16 -6 16
-16 0 -17 2 -4 10 10 7 11 10 2 10 -7 0 -18 11 -24 25 -6 14 -17 25 -25 25 -7
0 -13 7 -13 15 0 8 -4 15 -9 15 -5 0 -12 8 -15 18 -3 9 -4 5 -2 -11 2 -15 -1
-30 -6 -33 -4 -3 -8 -2 -7 3 1 4 1 23 0 42 -1 29 -3 32 -16 21 -13 -11 -15 -8
-15 14 0 16 -4 25 -10 21 -6 -4 -7 -12 -3 -18 4 -7 -1 -5 -11 3 -11 8 -14 16
-7 18 17 6 2 22 -20 22 -12 0 -19 7 -19 20 0 11 -7 20 -15 20 -9 0 -12 6 -9
15 4 9 0 15 -8 15 -24 0 -47 35 -36 56 9 18 8 18 -6 0 -9 -11 -14 -29 -10 -40
4 -17 3 -18 -5 -6 -6 8 -11 29 -12 45 0 17 -3 24 -6 17 -8 -20 -33 6 -26 26 5
13 3 14 -6 6 -8 -7 -27 -8 -52 -4 -26 5 -39 4 -39 -4 0 -6 -4 -5 -9 3 -5 7
-14 11 -20 7 -6 -4 -9 -2 -5 7 5 15 -4 17 -83 16 -29 0 -54 5 -59 12 -5 8 0
10 18 7 16 -3 25 0 25 8 0 7 -4 11 -8 9 -4 -3 -21 -2 -37 1 -21 4 -29 11 -25
20 4 10 0 12 -11 8 -9 -4 -16 -1 -16 6 0 10 -3 10 -15 0 -9 -7 -15 -8 -15 -2
0 11 -18 11 -37 -1 -8 -5 -13 -3 -13 5 0 9 -3 9 -10 -2 -8 -13 -10 -13 -10 2
0 21 -16 32 -26 17 -4 -8 -3 -9 4 -5 7 4 12 2 12 -3 0 -6 -7 -11 -15 -11 -8 0
-15 7 -15 15 0 8 -8 15 -18 15 -10 0 -24 6 -31 13 -10 10 -12 9 -9 -2 2 -12
-9 -14 -51 -13 -31 1 -58 7 -63 14 -6 10 -8 9 -9 -2z m-309 -54 c0 -3 -4 -8
-10 -11 -5 -3 -10 -1 -10 4 0 6 5 11 10 11 6 0 10 -2 10 -4z m40 0 c0 -2 -7
-7 -16 -10 -8 -3 -12 -2 -9 4 6 10 25 14 25 6z m-211 -157 c-16 -10 -23 -4
-14 10 3 6 11 8 17 5 6 -4 5 -9 -3 -15z m1486 -1149 c3 -6 -4 -10 -17 -10 -18
0 -20 2 -8 10 19 12 18 12 25 0z m-1825 -35 c0 -2 -6 -5 -13 -8 -8 -3 -14 1
-14 8 0 7 6 11 14 8 7 -3 13 -6 13 -8z m1680 -1551 c0 -8 -5 -12 -10 -9 -6 4
-8 11 -5 16 9 14 15 11 15 -7z m-1744 -198 c1 -7 -4 -13 -12 -13 -9 0 -11 4
-4 12 5 7 8 15 5 18 -3 4 -2 5 2 2 4 -3 8 -11 9 -19z m1224 -76 c0 -5 -5 -10
-11 -10 -5 0 -7 5 -4 10 3 6 8 10 11 10 2 0 4 -4 4 -10z"/>
<path d="M5249 6440 c-1 -8 -1 -18 -1 -21 1 -3 -5 -6 -13 -6 -8 0 -12 4 -9 9
3 4 -9 8 -25 8 -21 0 -31 -5 -31 -15 0 -8 -4 -15 -10 -15 -5 0 -9 3 -7 8 1 4
-2 7 -8 7 -5 0 -9 -3 -7 -7 1 -5 -3 -8 -9 -8 -5 0 -8 -4 -4 -9 3 -5 1 -13 -5
-16 -6 -4 -9 -1 -8 6 2 7 -6 14 -17 15 -11 0 -31 4 -44 9 -13 4 -21 3 -18 -1
3 -5 -17 -9 -44 -9 -27 0 -49 3 -49 7 0 4 -6 6 -12 4 -7 -3 -26 -7 -42 -11
-23 -5 -27 -8 -15 -16 10 -6 7 -9 -13 -9 -22 0 -28 -5 -28 -21 0 -15 -5 -19
-15 -15 -8 3 -15 2 -15 -2 0 -4 -18 -6 -40 -4 -22 2 -48 1 -57 -2 -15 -6 -15
-8 -3 -17 12 -8 10 -10 -7 -6 -13 3 -23 1 -23 -3 0 -4 -9 -6 -19 -3 -11 3 -28
0 -38 -6 -15 -10 -14 -10 8 -5 15 3 30 1 33 -4 3 -5 0 -10 -7 -9 -36 1 -47 -4
-47 -24 0 -12 -5 -19 -12 -16 -7 2 -19 -5 -26 -17 -9 -14 -12 -16 -8 -3 3 11
0 17 -9 17 -8 0 -15 -7 -15 -16 0 -9 -6 -14 -12 -11 -7 2 -24 0 -37 -5 -16 -6
-27 -5 -31 2 -4 6 -13 4 -26 -6 -10 -8 -13 -13 -6 -9 14 7 16 -4 2 -25 -5 -8
-10 -10 -10 -4 0 6 -7 11 -15 11 -11 0 -12 -4 -5 -11 17 -17 11 -29 -7 -15
-11 10 -14 10 -9 2 7 -12 -11 -16 -76 -16 -10 0 -15 -4 -12 -8 3 -5 10 -7 15
-4 5 3 6 0 3 -8 -3 -9 -13 -13 -25 -10 -15 4 -18 2 -13 -11 4 -12 0 -16 -15
-16 -14 0 -21 -6 -21 -20 0 -11 -7 -20 -15 -20 -9 0 -15 -10 -16 -22 0 -13 -3
-17 -6 -10 -8 20 -23 3 -24 -26 0 -15 -3 -21 -6 -14 -2 6 -12 12 -20 12 -12 0
-13 -3 -4 -13 14 -18 4 -27 -28 -27 -21 0 -23 -2 -11 -10 11 -7 11 -10 2 -10
-7 0 -11 -4 -8 -9 3 -4 -7 -7 -22 -5 -15 2 -19 1 -9 -2 9 -3 15 -10 11 -15 -3
-5 -10 -7 -15 -4 -5 4 -9 -2 -10 -12 0 -16 -1 -16 -9 2 -8 18 -9 17 -9 -7 -1
-16 -7 -28 -14 -28 -7 0 -18 -12 -25 -27 -7 -17 -9 -19 -6 -6 3 12 -1 25 -7
29 -8 5 -9 3 -4 -6 5 -8 1 -18 -10 -27 -11 -7 -14 -13 -9 -13 6 0 11 -7 11
-15 0 -11 -4 -12 -13 -4 -9 7 -18 7 -31 0 -16 -9 -16 -10 6 -11 22 0 22 -13 0
-16 -5 -1 -13 -2 -18 -3 -5 0 -11 -10 -14 -21 -3 -13 -1 -18 6 -14 7 3 3 -2
-7 -10 -16 -13 -17 -16 -4 -16 11 0 15 -6 11 -20 -5 -18 -15 -24 -35 -21 -5 0
-8 -4 -8 -9 0 -6 5 -10 11 -10 5 0 8 -4 5 -9 -3 -4 -18 -6 -33 -4 -20 3 -24 2
-14 -5 15 -11 -2 -27 -18 -17 -5 3 -12 1 -15 -4 -4 -5 -2 -12 4 -16 14 -9 -17
-65 -36 -65 -8 0 -17 -7 -20 -15 -4 -8 -10 -13 -14 -10 -5 3 -6 -3 -3 -14 3
-13 -2 -20 -19 -26 l-23 -7 25 -7 c24 -7 24 -7 4 -13 -17 -4 -20 -11 -16 -37
3 -26 1 -31 -15 -31 -16 0 -19 -6 -16 -32 4 -30 3 -31 -10 -15 -8 9 -18 17
-23 17 -4 0 -3 -5 4 -12 7 -7 12 -19 12 -27 0 -14 -1 -14 -10 -1 -8 12 -10 9
-10 -13 0 -15 -6 -30 -14 -33 -9 -4 -14 -22 -15 -52 -1 -70 -4 -91 -14 -85 -4
2 -5 14 -1 26 5 16 3 19 -5 11 -7 -7 -12 -49 -12 -112 0 -96 -1 -101 -22 -104
-13 -2 -21 -10 -19 -18 2 -11 -2 -10 -12 3 -13 16 -14 13 -16 -35 0 -29 -1
-60 -1 -68 1 -8 1 -44 0 -80 0 -36 0 -72 0 -80 2 -80 1 -102 -4 -110 -4 -6 -3
-16 1 -22 11 -17 12 -48 4 -53 -4 -3 -6 -17 -3 -32 9 -67 9 -111 -2 -105 -5 3
-4 -1 2 -10 7 -8 11 -17 9 -19 -3 -2 -6 -22 -9 -45 -3 -37 12 -71 27 -57 3 4
6 -3 6 -15 0 -17 6 -22 27 -22 26 0 26 0 7 -22 -10 -12 -13 -18 -6 -14 12 7
17 -19 12 -72 -1 -12 2 -22 7 -21 22 4 25 -2 7 -16 -19 -15 -19 -16 1 -13 17
3 19 -2 17 -27 -3 -27 -2 -28 10 -12 14 19 16 17 20 -41 1 -9 5 -9 12 -2 14
14 26 12 26 -5 0 -8 6 -15 14 -15 19 0 27 -25 13 -39 -8 -8 -8 -11 1 -11 9 0
10 -5 3 -18 -6 -12 -5 -23 6 -37 15 -19 15 -19 10 10 l-6 30 13 -30 c8 -16 12
-33 10 -36 -2 -4 3 -10 12 -13 12 -5 15 -2 10 9 -3 9 -2 13 4 10 6 -3 10 -15
10 -27 0 -14 5 -18 15 -14 11 4 15 0 13 -12 -2 -11 5 -18 21 -20 13 -2 20 -7
14 -10 -14 -9 2 -52 19 -51 10 0 10 2 1 6 -7 2 -13 9 -13 14 0 4 7 6 15 3 8
-4 15 -15 15 -25 0 -10 5 -19 10 -19 6 0 10 5 10 10 0 6 9 1 20 -10 11 -11 20
-29 20 -40 0 -13 7 -20 20 -20 11 0 20 -6 20 -13 0 -17 36 -47 58 -48 14 0 14
-2 -3 -9 l-20 -9 20 0 c17 -1 17 -3 5 -11 -12 -8 -9 -10 12 -10 30 0 49 -19
21 -21 -10 -1 -4 -5 12 -8 17 -4 40 -4 53 1 17 6 22 4 22 -10 0 -15 2 -15 10
-2 8 13 10 12 10 -2 0 -10 7 -18 15 -18 9 0 12 6 9 18 -5 16 -5 16 6 0 6 -10
21 -18 33 -18 13 0 29 -6 36 -12 11 -10 13 -10 7 0 -4 7 -1 12 7 12 8 0 18 -7
21 -16 3 -8 2 -13 -2 -10 -4 2 -14 0 -22 -5 -13 -9 -13 -10 0 -8 35 3 48 -2
55 -23 3 -13 8 -18 11 -13 7 16 104 6 104 -11 0 -17 31 -18 49 -1 11 10 13 10
7 0 -5 -9 2 -13 26 -13 338 -5 588 -3 588 3 0 5 5 5 11 2 13 -9 256 -8 270 1
8 4 7 10 -2 16 -10 7 -8 8 9 5 17 -4 22 -1 22 15 0 10 5 16 10 13 6 -3 10 0
10 7 0 10 3 9 11 -2 8 -12 10 -9 6 12 -2 17 1 29 9 32 8 3 14 1 14 -5 0 -6 5
-7 12 -3 7 4 27 7 46 6 25 -2 32 1 26 10 -5 9 -2 8 10 -1 16 -13 17 -13 14 5
-2 15 2 18 19 16 18 -3 22 0 16 15 -6 15 -4 16 9 6 18 -16 28 -7 28 24 0 26 9
29 29 11 11 -10 13 -10 7 0 -4 7 -1 12 8 12 9 0 16 4 16 10 0 5 -8 7 -17 3
-10 -3 -14 -2 -10 2 4 5 27 9 50 10 23 1 40 5 38 10 -1 6 -7 9 -13 7 -5 -1 -7
2 -3 7 3 6 12 8 20 4 8 -3 15 0 15 7 0 6 5 8 10 5 6 -3 10 3 10 14 0 15 6 21
22 21 12 0 18 3 14 7 -3 4 6 12 21 19 18 8 22 13 11 13 -28 2 -29 17 0 17 19
-1 28 5 30 18 2 11 10 26 18 34 12 11 14 11 14 -5 0 -14 2 -15 9 -4 5 8 8 24
6 37 -1 13 2 21 6 18 5 -3 9 -12 9 -21 0 -9 3 -13 8 -9 7 7 8 11 11 37 0 5 6
7 11 4 6 -4 10 6 10 21 0 27 1 27 14 8 8 -10 18 -16 22 -11 4 4 2 7 -4 7 -7 0
-12 5 -12 11 0 5 5 7 10 4 6 -3 10 1 10 10 0 11 5 15 15 11 21 -8 19 11 -2 24
-17 10 -17 10 1 8 10 -2 21 3 24 11 3 8 0 11 -7 7 -7 -5 -9 -1 -5 9 5 11 10
13 19 5 9 -8 13 -7 12 2 -1 40 4 68 14 68 6 0 9 -7 6 -15 -4 -8 -3 -17 2 -19
4 -3 8 0 9 7 4 36 16 73 26 82 30 25 27 65 -3 43 -10 -8 -9 -4 3 9 16 20 17
25 5 40 -11 13 -11 15 -1 9 9 -5 13 -3 11 5 -3 25 1 39 11 39 5 0 7 -8 4 -17
-5 -16 -4 -16 6 0 7 10 10 28 7 38 -4 15 1 23 19 29 14 6 24 18 24 29 0 11 9
22 23 26 14 4 17 8 9 12 -10 4 -10 8 0 21 11 13 10 15 -5 9 -13 -5 -16 -3 -10
6 4 6 9 23 10 37 5 46 6 50 21 50 8 0 12 6 8 15 -3 8 -2 15 2 15 4 0 5 46 4
102 -2 57 0 100 3 96 4 -4 16 -3 26 3 13 7 19 6 19 -1 0 -6 4 -9 9 -6 5 3 8
23 8 44 0 21 3 43 7 50 4 7 2 12 -4 12 -8 0 -7 6 1 21 8 15 8 19 0 15 -15 -10
-14 7 1 22 7 7 8 12 3 12 -6 0 -10 22 -11 49 0 28 3 48 8 45 4 -3 4 6 -2 20
-5 14 -6 26 -1 26 4 0 8 7 8 15 0 8 -3 15 -7 15 -3 0 -5 19 -4 43 1 23 3 42 4
42 1 0 3 8 5 18 2 9 0 17 -4 17 -4 0 -6 19 -5 43 1 23 3 42 4 42 1 0 3 8 5 18
2 9 0 17 -4 17 -4 0 -6 19 -5 43 1 23 3 42 4 42 1 0 3 8 5 18 2 9 0 17 -4 17
-4 0 -6 19 -5 43 1 23 3 42 4 42 1 0 3 8 5 18 2 9 -1 17 -6 17 -11 0 -7 23 6
32 6 5 5 8 -4 8 -11 0 -11 3 -1 15 7 9 8 15 2 15 -5 0 -8 9 -5 20 4 15 0 20
-14 20 -27 0 -35 10 -22 27 9 10 7 13 -10 13 -13 0 -21 6 -21 18 0 14 2 15 10
2 6 -9 10 -10 10 -3 0 6 -5 15 -10 18 -6 4 -10 14 -9 23 4 45 -1 73 -13 66
-10 -6 -10 -4 0 7 16 17 15 40 -1 33 -10 -4 -14 7 -14 43 -1 84 -3 93 -18 93
-15 0 -18 7 -18 42 0 10 -4 15 -8 12 -5 -3 -7 -10 -4 -15 4 -5 0 -9 -8 -9 -8
0 -17 9 -20 21 -4 15 -2 19 8 15 8 -3 17 -1 20 5 4 5 1 8 -6 7 -7 -2 -15 12
-19 30 -4 18 -11 36 -15 40 -4 4 -5 -4 -1 -18 5 -21 3 -20 -8 5 -8 16 -12 36
-9 45 4 13 4 13 -6 0 -6 -8 -8 -24 -5 -35 4 -16 3 -17 -5 -5 -6 8 -11 31 -12
50 0 19 -3 29 -6 23 -2 -7 -13 -13 -22 -13 -14 0 -18 7 -15 28 2 26 2 26 -12
8 -14 -19 -14 -19 -14 2 0 14 -6 22 -16 22 -11 0 -15 6 -11 20 4 16 0 20 -21
20 -15 0 -34 5 -42 11 -12 8 -11 9 5 5 11 -3 27 -1 35 5 13 9 13 10 0 8 -8 -1
-24 -1 -35 0 -15 1 -17 3 -7 10 10 6 5 11 -18 19 -32 12 -34 36 -2 26 15 -5
15 -4 -1 6 -14 9 -22 9 -34 -2 -12 -9 -15 -9 -9 0 5 8 1 12 -10 12 -17 0 -17
1 0 13 20 15 22 14 -56 18 -33 1 -48 6 -48 15 0 8 -6 14 -14 14 -9 0 -13 7
-11 20 4 20 -2 23 -40 21 -11 0 -14 2 -7 5 20 9 14 26 -8 19 -12 -4 -20 -2
-20 6 0 9 -4 8 -15 -1 -9 -8 -15 -8 -15 -2 0 6 -15 9 -35 6 -26 -3 -35 0 -35
11 0 10 -12 14 -42 15 -40 0 -51 0 -95 0 -65 -1 -99 3 -111 12 -10 9 -12 8
-10 -2 4 -18 -102 -16 -114 2 -6 10 -8 9 -9 -2z m-339 -54 c0 -3 -4 -8 -10
-11 -5 -3 -10 -1 -10 4 0 6 5 11 10 11 6 0 10 -2 10 -4z m289 -925 c9 -6 10
-11 2 -15 -6 -4 -9 -12 -5 -17 3 -5 9 -7 14 -4 5 3 12 0 16 -6 4 -8 3 -9 -4
-5 -7 4 -12 2 -12 -4 0 -6 7 -13 16 -17 13 -5 13 -7 2 -14 -10 -7 -8 -9 6 -9
16 0 17 -2 5 -17 -13 -16 -12 -17 4 -4 10 8 16 20 13 27 -3 7 -2 15 2 18 13 8
12 -37 -1 -53 -9 -12 -9 -13 1 -7 8 5 12 0 12 -13 0 -12 7 -21 15 -21 8 0 15
-9 15 -21 0 -11 -4 -18 -9 -14 -5 3 -13 0 -17 -6 -4 -7 -3 -9 4 -5 6 3 13 2
17 -4 4 -6 12 -7 18 -3 7 4 6 0 -2 -10 -11 -14 -11 -20 -1 -32 7 -9 10 -18 6
-22 -3 -3 -6 -1 -6 6 0 7 -5 9 -10 6 -17 -10 8 -35 27 -28 11 4 14 2 9 -5 -4
-7 -14 -12 -22 -12 -8 0 -14 -4 -14 -10 0 -5 7 -7 15 -4 23 9 20 -175 -3 -193
-16 -12 -16 -13 1 -7 15 5 17 -1 18 -52 1 -33 0 -63 -1 -69 -2 -11 -2 -81 1
-158 1 -26 -1 -50 -4 -53 -3 -3 -2 -18 3 -33 8 -29 0 -53 -16 -52 -5 1 -9 -9
-9 -21 0 -13 -3 -25 -7 -28 -4 -3 -4 -19 1 -35 4 -17 4 -43 0 -58 -4 -16 -6
-34 -3 -42 3 -8 -6 -21 -20 -30 -14 -10 -23 -21 -20 -26 3 -5 0 -8 -8 -7 -8 2
-14 -9 -16 -31 -2 -18 1 -31 6 -27 5 3 9 -1 9 -9 0 -8 -5 -13 -10 -12 -5 1
-11 -6 -12 -16 -2 -11 -7 -22 -11 -25 -4 -4 -4 2 -1 13 7 19 7 19 -8 1 -8 -10
-12 -23 -9 -28 3 -5 -10 -8 -30 -6 -30 2 -36 6 -36 24 0 13 -4 26 -10 29 -5 3
-7 0 -4 -8 3 -8 0 -18 -6 -22 -6 -3 -10 -3 -9 2 1 4 1 19 0 32 -1 19 -4 21
-15 12 -10 -9 -16 -8 -26 4 -11 13 -10 14 3 10 8 -4 17 -2 20 2 3 5 -9 10 -26
11 -17 2 -36 7 -42 13 -7 7 -4 8 8 3 13 -5 16 -2 11 10 -3 9 -16 16 -28 16
-21 1 -21 1 -1 17 20 15 20 15 -2 10 -13 -3 -26 -1 -29 4 -3 5 -11 6 -17 2 -8
-4 -8 -2 1 9 10 13 10 17 -2 21 -9 4 -17 -1 -19 -11 -3 -9 -5 -2 -6 16 -1 21
-6 32 -16 32 -8 0 -15 7 -15 15 0 9 -7 18 -15 21 -9 4 -15 19 -15 38 0 17 -5
38 -11 46 -8 12 -9 10 -4 -7 5 -18 3 -22 -9 -17 -9 3 -16 12 -16 19 0 7 -6 15
-14 18 -9 4 -14 23 -15 57 0 28 -3 56 -6 61 -4 5 -1 9 5 9 6 0 8 5 3 13 -10
17 -10 107 1 107 5 0 4 6 -2 13 -10 12 -8 70 3 88 4 5 1 9 -5 9 -8 0 -8 6 0
20 6 11 7 20 2 20 -5 0 -8 10 -6 23 1 12 3 30 3 39 1 12 7 16 19 12 16 -5 16
-5 0 6 -20 12 -24 35 -8 45 5 3 7 0 4 -8 -3 -8 -1 -18 5 -22 8 -4 11 17 11 64
0 55 3 71 14 71 8 0 17 -6 19 -12 3 -7 6 -4 6 7 1 16 3 17 10 6 8 -12 11 -9
16 12 4 15 14 27 22 27 9 0 13 6 10 15 -4 8 -2 17 4 20 5 4 6 11 3 17 -4 7 -2
8 5 4 6 -4 9 -11 6 -16 -3 -4 2 -11 11 -14 14 -5 15 1 12 44 -2 41 0 51 15 56
9 3 15 8 13 12 -5 10 20 32 28 25 3 -4 6 3 6 14 0 11 8 27 17 34 14 12 16 12
9 0 -6 -9 -5 -12 3 -10 7 3 11 8 9 13 -2 5 7 12 18 17 16 6 21 14 18 36 -2 15
-1 20 2 11 7 -24 24 -23 24 2 0 15 7 20 28 20 15 0 33 -4 41 -9z m-1434 -11
c3 -5 1 -10 -4 -10 -6 0 -11 5 -11 10 0 6 2 10 4 10 3 0 8 -4 11 -10z m1596
-437 c13 -16 12 -17 -3 -4 -10 7 -18 15 -18 17 0 8 8 3 21 -13z m9 -247 c0 -2
-7 -7 -16 -10 -8 -3 -12 -2 -9 4 6 10 25 14 25 6z m-9 -173 c13 -16 12 -17 -3
-4 -10 7 -18 15 -18 17 0 8 8 3 21 -13z m-31 -94 c0 -5 -4 -9 -10 -9 -5 0 -10
7 -10 16 0 8 5 12 10 9 6 -3 10 -10 10 -16z m-5 -48 c3 -5 2 -12 -3 -15 -5 -3
-9 1 -9 9 0 17 3 19 12 6z m-465 -9 c0 -5 -7 -9 -15 -9 -8 0 -15 4 -15 9 0 4
7 8 15 8 8 0 15 -4 15 -8z m1394 -220 c3 -5 -1 -9 -9 -9 -8 0 -12 4 -9 9 3 4
7 8 9 8 2 0 6 -4 9 -8z m-2729 -11 c3 -5 2 -12 -3 -15 -5 -3 -9 1 -9 9 0 17 3
19 12 6z m2732 -17 c-3 -3 -12 -4 -19 -1 -8 3 -5 6 6 6 11 1 17 -2 13 -5z
m-597 -730 c0 -8 -19 -13 -24 -6 -3 5 1 9 9 9 8 0 15 -2 15 -3z m-1176 -176
c-3 -4 -9 -8 -15 -8 -5 0 -9 4 -9 8 0 5 7 9 15 9 8 0 12 -4 9 -9z"/>
<path d="M5165 5451 c-3 -5 0 -13 6 -17 7 -4 9 -3 5 4 -3 5 0 13 6 15 9 4 10
6 1 6 -6 1 -14 -3 -18 -8z"/>
<path d="M4840 5106 c0 -2 8 -10 18 -17 15 -13 16 -12 3 4 -13 16 -21 21 -21
13z"/>
<path d="M4815 4829 c-4 -6 -5 -12 -2 -15 2 -3 7 2 10 11 7 17 1 20 -8 4z"/>
<path d="M4950 4360 c0 -5 5 -10 11 -10 5 0 7 5 4 10 -3 6 -8 10 -11 10 -2 0
-4 -4 -4 -10z"/>
<path d="M5265 4320 c-3 -5 -2 -10 4 -10 5 0 13 5 16 10 3 6 2 10 -4 10 -5 0
-13 -4 -16 -10z"/>
<path d="M5231 4301 c-8 -6 -9 -11 -3 -15 6 -3 14 -1 17 5 9 14 2 20 -14 10z"/>
<path d="M5175 4159 c-4 -6 -5 -12 -2 -15 2 -3 7 2 10 11 7 17 1 20 -8 4z"/>
<path d="M7208 6418 c-3 -7 -23 -13 -47 -15 -52 -2 -74 -18 -65 -47 6 -21 6
-21 -10 -1 -15 20 -15 20 -16 -2 0 -20 -5 -23 -36 -23 -28 0 -35 -3 -31 -15 4
-8 2 -17 -3 -20 -10 -6 -15 9 -10 30 1 5 -2 6 -7 2 -4 -5 -9 -13 -9 -18 -1 -5
-2 -12 -3 -15 0 -4 -8 0 -18 7 -11 10 -17 10 -20 3 -2 -6 -16 -10 -31 -8 -15
2 -19 1 -9 -2 23 -7 22 -24 -3 -24 -13 0 -20 -7 -20 -20 0 -16 -7 -20 -37 -20
-21 0 -45 -5 -53 -11 -13 -9 -12 -10 3 -5 11 3 17 0 17 -9 0 -9 -6 -12 -15 -9
-9 4 -15 0 -15 -10 0 -10 -9 -16 -24 -16 -17 0 -23 -5 -22 -17 1 -13 -7 -19
-26 -21 -21 -3 -28 -9 -28 -26 0 -12 -6 -28 -12 -35 -8 -9 -8 -11 -2 -8 9 5
12 -54 12 -226 0 -127 1 -236 2 -242 1 -5 2 -14 1 -20 -5 -25 -1 -277 4 -285
4 -6 2 -10 -4 -10 -6 0 -6 -11 -1 -30 5 -16 5 -32 1 -34 -3 -3 -6 -24 -4 -47
1 -24 -3 -50 -10 -58 -9 -11 -9 -13 0 -8 9 5 12 -35 12 -160 0 -266 -1 -265
14 -257 9 6 9 4 -1 -8 -9 -12 -12 -81 -12 -279 1 -452 3 -411 -22 -403 -21 6
-22 5 -8 -11 8 -11 10 -16 3 -12 -9 6 -12 -17 -11 -93 0 -68 4 -100 12 -100 8
0 8 -2 0 -8 -15 -10 -16 -144 -1 -154 8 -5 9 -8 1 -8 -16 0 -17 -150 -1 -150
9 0 9 -2 1 -8 -6 -4 -12 -37 -12 -74 -1 -80 -10 -118 -23 -97 -13 21 -12 782
2 774 6 -4 5 2 -3 14 -11 17 -11 25 0 42 8 12 9 18 3 14 -7 -3 -11 2 -11 15 0
14 4 19 13 14 9 -6 9 -4 1 7 -16 20 -17 302 -1 293 8 -5 8 -2 0 7 -17 17 -18
83 -1 73 7 -5 8 -3 2 7 -15 25 -14 44 4 58 16 13 16 13 0 8 -17 -6 -22 4 -21
41 1 7 -1 11 -4 8 -3 -3 -14 -1 -24 4 -12 7 -20 6 -25 -2 -4 -6 -3 -8 2 -5 6
3 16 2 23 -3 16 -10 4 -33 -12 -24 -8 5 -8 3 1 -7 14 -15 18 -224 4 -215 -5 3
-9 -1 -9 -9 0 -8 4 -12 7 -10 4 3 8 -101 9 -231 0 -129 -3 -233 -8 -230 -4 3
-8 -1 -8 -9 0 -8 4 -12 8 -9 4 2 8 -23 8 -56 -1 -39 -5 -60 -12 -60 -8 0 -7
-4 2 -9 8 -5 11 -16 8 -26 -4 -9 -12 -13 -18 -9 -8 4 -9 3 -5 -5 4 -6 12 -9
17 -6 5 4 9 -3 9 -15 0 -14 -4 -19 -12 -14 -9 6 -9 3 0 -9 16 -19 8 -39 -13
-30 -10 3 -15 -1 -15 -12 0 -9 4 -14 8 -11 4 2 14 0 22 -5 12 -8 11 -9 -5 -7
-18 3 -20 -3 -21 -47 -1 -27 -3 -70 -4 -95 -4 -101 -1 -120 20 -120 11 0 20
-5 20 -10 0 -6 -6 -10 -14 -8 -8 2 -15 -1 -15 -7 0 -5 7 -9 15 -7 11 2 14 -9
14 -48 0 -37 5 -55 20 -70 22 -22 56 -28 44 -7 -6 8 -3 8 9 -1 9 -8 21 -11 27
-7 5 3 10 2 10 -2 0 -5 9 -9 20 -9 11 0 20 5 20 11 0 5 4 4 9 -4 5 -8 11 -9
15 -3 3 5 22 6 46 2 38 -7 44 -5 41 13 -2 11 6 8 23 -9 15 -14 16 -13 16 8 0
18 2 20 10 8 8 -13 10 -13 11 3 1 9 2 23 3 30 1 9 34 13 119 15 105 2 147 13
100 25 -10 3 1 5 24 6 23 0 45 5 48 11 4 6 -1 7 -11 3 -12 -4 -15 -3 -10 5 4
7 14 12 22 12 9 0 14 7 12 17 -2 12 4 18 19 19 12 1 28 4 37 7 9 4 20 -1 25
-11 10 -16 11 -15 15 20 0 6 8 13 16 15 10 3 11 2 4 -4 -7 -5 -8 -16 -3 -28 7
-18 8 -18 8 -1 1 13 6 16 17 12 14 -5 15 -4 5 8 -9 11 -8 15 3 19 21 8 51 2
51 -11 0 -6 4 -14 9 -19 5 -4 6 -3 2 4 -8 15 7 24 45 25 20 1 26 4 17 10 -10
6 -7 10 10 14 16 5 22 13 20 28 -2 13 2 20 10 18 9 -2 5 9 -9 30 -13 17 -18
28 -11 24 7 -4 12 -2 12 5 0 8 5 8 18 -2 16 -13 16 -13 0 7 -10 11 -18 28 -18
36 0 19 24 40 35 30 5 -4 5 2 2 13 -7 19 -6 19 7 3 15 -21 32 -23 42 -6 5 8 1
9 -12 4 -14 -5 -16 -4 -7 5 15 15 33 3 33 -21 0 -10 4 -22 10 -25 6 -3 7 1 4
9 -3 9 -1 16 5 16 6 0 11 -9 11 -19 0 -11 5 -23 10 -26 6 -3 10 -14 9 -23 0
-14 -2 -13 -9 3 -8 18 -9 17 -7 -6 1 -29 22 -29 31 -1 3 10 4 1 3 -19 -2 -20
3 -41 10 -48 10 -9 13 -6 13 15 0 37 9 26 12 -14 1 -18 8 -32 15 -32 7 0 13
-9 13 -20 0 -11 5 -20 10 -20 6 0 10 5 10 12 0 9 3 9 11 1 6 -6 11 -34 11 -62
-1 -37 2 -50 11 -45 8 5 8 3 0 -7 -15 -15 -18 -103 -3 -94 5 3 8 11 6 18 -1 7
-1 9 1 4 3 -4 9 -5 14 -2 5 4 6 -2 2 -12 -6 -16 -5 -16 10 -4 9 7 17 9 17 4 0
-5 7 -10 15 -10 8 0 12 4 9 8 -5 9 62 2 79 -8 6 -4 8 0 4 10 -3 9 -1 19 5 23
6 4 8 3 5 -3 -7 -11 22 -28 31 -18 3 3 0 5 -7 5 -7 0 -9 5 -6 10 3 6 15 10 27
10 17 0 18 3 8 15 -10 12 -8 16 11 24 13 5 17 10 9 11 -9 0 -5 6 10 13 14 7
27 11 30 8 3 -3 12 -5 20 -5 8 1 23 2 33 3 9 0 17 8 17 17 0 9 6 14 13 11 18
-6 47 11 47 28 0 11 12 15 41 15 30 0 40 4 36 13 -4 10 4 13 26 13 25 -1 32 3
31 17 -1 9 2 17 6 17 5 0 6 10 4 23 l-5 22 12 -22 c7 -13 17 -23 23 -23 6 0 5
5 -2 12 -17 17 -15 33 3 18 12 -10 16 -9 21 4 3 9 10 13 15 10 5 -3 6 1 3 9
-3 8 0 18 7 23 8 5 10 3 4 -6 -6 -9 -4 -11 4 -6 7 5 10 15 7 23 -3 8 -1 11 4
8 6 -3 10 -2 10 4 0 6 7 8 15 5 9 -4 15 0 15 9 0 11 -7 15 -21 12 -12 -3 -19
-1 -15 2 6 7 29 13 53 15 7 1 10 5 7 10 -3 5 -10 5 -16 2 -6 -4 -8 -1 -6 7 3
8 11 13 18 11 8 -2 10 3 7 13 -4 9 -1 15 9 15 8 0 12 -4 9 -10 -3 -5 -4 -10
-1 -10 3 0 10 10 17 22 10 18 9 20 -5 15 -9 -4 -16 -2 -16 2 0 12 29 23 41 15
5 -3 13 6 19 20 7 19 14 24 27 19 15 -6 16 -4 6 8 -8 9 -9 20 -3 29 8 13 10
12 10 -2 0 -9 4 -19 8 -22 13 -8 11 27 -2 43 -8 11 -8 13 0 8 7 -4 14 0 17 7
3 8 1 17 -6 20 -7 2 -5 5 5 5 9 1 19 -5 21 -11 3 -8 6 -6 6 5 1 9 7 17 14 17
8 0 7 4 -3 10 -14 9 -7 15 14 11 5 -1 3 5 -4 14 -17 21 -22 45 -9 45 6 0 7 5
4 10 -9 15 -37 -9 -28 -24 3 -6 2 -7 -3 -3 -9 9 -10 13 -13 42 0 8 -7 15 -15
15 -9 0 -13 7 -11 20 2 11 0 22 -6 25 -5 4 -10 1 -10 -4 -3 -26 -4 -30 -10
-36 -4 -3 -6 2 -6 12 0 45 -4 52 -35 59 -18 4 -27 9 -20 11 6 3 12 9 12 14 0
4 -8 5 -17 2 -13 -5 -15 -2 -10 11 5 13 1 19 -13 23 -11 3 -20 14 -20 25 0 10
-4 17 -9 14 -5 -3 -14 1 -21 9 -7 8 -18 15 -26 15 -7 0 -11 8 -9 20 3 14 -2
20 -16 20 -13 0 -19 7 -19 23 -1 21 -2 21 -14 4 -12 -16 -14 -16 -20 -1 -9 23
-8 26 7 18 9 -5 9 -4 0 6 -10 10 -15 11 -27 1 -12 -10 -14 -7 -12 18 1 16 0
29 -3 29 -22 -2 -31 5 -31 21 0 15 -6 18 -32 16 -30 -3 -31 -2 -13 11 18 13
18 14 -6 14 -19 0 -21 2 -9 10 13 8 12 10 -3 10 -10 0 -15 5 -12 10 3 6 -1 10
-9 10 -10 0 -16 9 -16 23 -1 21 -2 21 -14 4 -12 -16 -14 -16 -20 -1 -9 23 -8
26 7 18 9 -5 9 -4 0 6 -10 10 -15 11 -27 1 -12 -10 -14 -7 -12 17 1 17 -3 29
-11 30 -7 1 -20 3 -28 4 -8 1 -12 5 -9 10 3 4 -2 11 -10 14 -9 3 -16 12 -16
20 0 8 -7 14 -16 14 -8 0 -12 4 -9 10 3 5 -3 15 -15 22 -11 7 -20 21 -20 31 0
15 -3 16 -20 7 -17 -9 -20 -8 -21 12 -1 13 -1 28 0 33 1 6 -5 2 -12 -7 -8 -10
-17 -15 -20 -11 -4 3 -3 11 3 17 5 7 5 17 0 26 -8 13 -10 12 -10 -2 0 -10 -4
-18 -9 -18 -11 0 -9 19 3 40 5 8 6 12 1 8 -4 -4 -20 1 -35 12 -16 11 -33 20
-38 20 -6 0 -9 9 -7 20 2 11 0 22 -6 25 -5 4 -10 1 -10 -4 -3 -26 -4 -30 -10
-36 -4 -3 -6 2 -6 12 0 50 -4 62 -17 57 -19 -7 -31 15 -17 29 9 9 11 8 5 -6
-5 -13 -2 -16 10 -11 9 3 13 10 10 15 -3 5 0 9 6 9 6 0 8 5 5 10 -4 6 -11 7
-17 4 -7 -4 -8 -2 -4 4 4 7 18 12 30 12 17 0 23 5 22 18 -1 13 5 16 24 14 24
-4 25 -3 5 12 -19 15 -19 15 8 16 16 0 26 4 22 10 -3 6 1 10 9 10 21 0 40 37
23 43 -6 3 5 4 27 2 30 -2 40 1 43 16 3 10 10 16 16 12 6 -4 8 0 4 11 -4 10
-3 15 3 11 6 -3 10 1 10 9 0 9 7 16 16 16 14 0 14 3 4 15 -11 13 -10 14 4 9 9
-3 16 -11 16 -17 0 -6 2 -8 5 -5 3 3 1 18 -5 34 l-10 29 20 -25 20 -25 0 23
c0 12 6 22 13 22 7 0 18 12 25 28 7 16 9 18 6 5 -3 -12 1 -25 7 -29 7 -4 9 -3
6 3 -11 18 9 68 26 65 16 -3 22 13 18 43 -1 6 6 1 15 -10 11 -14 15 -16 14 -5
-4 29 0 40 14 40 8 0 18 5 22 12 5 8 2 9 -10 5 -10 -4 -15 -3 -11 3 10 16 33
12 45 -7 11 -17 11 -17 6 0 -4 13 1 17 22 17 17 0 22 3 15 8 -10 6 -10 12 2
28 15 18 15 18 8 0 -4 -13 -3 -17 5 -12 7 4 12 16 12 27 0 12 7 19 20 19 11 0
20 7 20 15 0 9 9 15 23 15 16 0 18 3 8 9 -10 7 -10 10 -1 16 7 4 16 2 20 -5 5
-8 9 -7 14 5 3 9 4 21 1 25 -3 5 0 12 6 16 8 4 9 3 5 -4 -9 -16 7 -15 22 0 7
7 12 8 12 4 0 -5 -8 -15 -17 -23 -14 -11 -14 -13 -3 -10 8 2 19 13 25 25 7 15
16 20 30 16 18 -4 18 -4 3 6 -22 13 -24 32 -3 24 9 -4 15 0 15 10 0 22 17 20
23 -1 4 -17 5 -17 6 0 0 9 6 17 12 17 15 0 39 26 32 34 -4 3 1 6 11 6 9 0 14
4 11 10 -3 5 6 12 20 16 14 3 25 13 25 23 0 12 2 13 9 3 6 -10 10 -8 16 10 4
12 7 26 6 31 -1 4 6 7 14 7 8 0 15 5 15 11 0 5 -5 7 -12 3 -7 -4 -8 -3 -4 5 4
6 13 11 19 10 7 -1 23 -1 37 1 22 1 23 2 6 9 -14 5 -16 10 -8 15 7 4 17 4 22
1 6 -3 10 -2 10 4 0 6 7 8 15 5 10 -4 15 0 15 15 0 14 6 21 20 21 11 0 20 6
20 13 0 7 9 18 20 25 11 7 20 20 20 30 0 9 3 13 8 7 4 -5 13 -11 21 -13 12 -3
12 0 2 12 -13 15 -2 51 18 58 6 1 11 29 12 60 1 31 6 55 11 52 5 -3 6 -10 3
-15 -4 -5 -1 -9 4 -9 16 0 13 16 -4 34 -8 8 -15 22 -15 30 0 10 -9 16 -24 16
-24 0 -41 23 -37 49 1 7 -2 10 -8 6 -6 -3 -11 0 -11 7 0 10 -3 9 -11 -2 -8
-12 -10 -9 -6 13 4 23 1 27 -19 27 -12 0 -26 5 -30 11 -4 8 1 9 17 5 23 -7 23
-6 4 5 -11 7 -23 17 -27 23 -5 7 -8 4 -8 -7 0 -10 -4 -16 -10 -12 -5 3 -7 12
-3 20 3 10 -2 15 -16 15 -26 0 -27 8 -3 27 9 7 13 13 7 12 -34 -5 -53 3 -59
24 -5 19 -8 20 -17 7 -8 -11 -12 -12 -16 -2 -2 6 -10 9 -16 5 -7 -4 -8 0 -4
11 6 16 -3 17 -119 15 -69 -1 -127 -6 -129 -10 -3 -4 12 -5 33 -3 32 3 34 1
17 -8 -11 -7 -38 -11 -60 -11 -33 1 -36 0 -15 -6 l25 -8 -30 -9 c-16 -4 -33
-8 -37 -9 -3 0 -10 -4 -15 -8 -4 -5 -3 -7 4 -5 6 2 12 -1 12 -7 1 -5 -20 -11
-46 -13 -33 -2 -43 -6 -33 -12 12 -8 10 -10 -7 -10 -13 0 -23 -5 -23 -11 0 -5
-5 -7 -10 -4 -20 12 -52 -6 -47 -27 4 -16 3 -17 -9 -7 -11 9 -14 7 -14 -10 0
-14 -6 -21 -20 -21 -11 0 -20 -7 -20 -15 0 -9 -9 -15 -24 -15 -14 0 -27 -4
-30 -9 -4 -5 3 -7 14 -4 27 7 25 -10 -2 -22 -13 -6 -22 -16 -21 -23 2 -7 -7
-12 -20 -12 -28 0 -54 -29 -52 -58 1 -15 -2 -19 -9 -13 -17 14 -54 -19 -58
-51 -2 -15 -7 -31 -12 -35 -4 -4 -6 -2 -4 6 2 7 -3 16 -10 18 -7 3 -12 1 -11
-4 1 -4 1 -15 0 -23 -1 -13 -2 -13 -11 0 -8 12 -10 9 -10 -14 0 -23 -3 -27
-20 -23 -14 4 -20 0 -20 -13 0 -10 -9 -20 -20 -23 -13 -3 -18 -11 -14 -20 4
-11 -1 -14 -20 -12 -14 2 -29 -1 -32 -6 -3 -5 -2 -9 3 -8 22 4 44 -2 38 -11
-3 -5 -12 -7 -20 -3 -9 3 -15 -1 -15 -8 0 -11 -3 -11 -10 1 -8 12 -10 11 -10
-7 0 -14 -6 -23 -15 -23 -8 0 -15 -7 -15 -15 0 -8 -6 -15 -13 -15 -8 0 -19
-12 -25 -26 -12 -26 -32 -25 -32 3 0 9 6 13 15 9 8 -3 15 -1 15 4 0 6 -7 11
-15 11 -29 3 -33 4 -42 12 -4 5 -1 7 7 5 13 -2 15 17 17 122 1 95 4 124 14
122 9 -2 10 0 2 10 -14 17 -20 159 -7 179 9 15 24 10 18 -6 -4 -8 -1 -15 6
-15 6 0 8 5 5 10 -8 12 34 29 54 22 9 -3 12 0 9 9 -3 8 -14 13 -24 11 -15 -2
-16 -1 -4 7 8 5 18 7 22 5 14 -9 12 172 -3 196 -6 10 -7 3 -3 -20 4 -26 3 -31
-5 -20 -6 8 -11 23 -11 34 0 12 -5 16 -15 12 -10 -3 -15 1 -15 13 0 16 -7 19
-52 18 -41 -1 -52 2 -50 14 2 10 -2 9 -12 -4 -11 -14 -15 -15 -25 -4 -6 8 -7
18 -3 22 4 5 2 5 -5 1 -7 -4 -10 -13 -7 -20 4 -10 -3 -13 -26 -10 -17 2 -35 6
-40 9 -5 3 -11 -1 -13 -7 -4 -10 -6 -9 -6 1 -1 11 -6 10 -22 -5 -15 -14 -20
-15 -17 -4 2 9 -4 14 -14 14 -9 -1 -14 4 -12 11 4 9 -16 13 -74 14 -57 1 -81
-2 -84 -11z m1449 -104 c-3 -3 -12 -4 -19 -1 -8 3 -5 6 6 6 11 1 17 -2 13 -5z
m-427 -134 c0 -5 -2 -10 -4 -10 -3 0 -8 5 -11 10 -3 6 -1 10 4 10 6 0 11 -4
11 -10z m-1465 -40 c3 -6 -1 -7 -9 -4 -18 7 -21 14 -7 14 6 0 13 -4 16 -10z
m1275 -124 c0 -2 -7 -9 -15 -16 -13 -11 -14 -10 -9 4 5 14 24 23 24 12z m-84
-91 c-14 -14 -16 -14 -16 -2 0 9 6 17 13 20 19 7 21 -1 3 -18z m131 -770 c0
-8 -4 -12 -9 -9 -5 3 -6 10 -3 15 9 13 12 11 12 -6z m-142 -135 c-3 -5 -12
-10 -18 -10 -7 0 -6 4 3 10 19 12 23 12 15 0z m-55 -50 c0 -5 -8 -10 -17 -10
-15 0 -16 2 -3 10 19 12 20 12 20 0z m-50 -270 c0 -5 -2 -10 -4 -10 -3 0 -8 5
-11 10 -3 6 -1 10 4 10 6 0 11 -4 11 -10z m545 -549 c3 -5 2 -12 -3 -15 -5 -3
-9 1 -9 9 0 17 3 19 12 6z m55 -51 c0 -5 -2 -10 -4 -10 -3 0 -8 5 -11 10 -3 6
-1 10 4 10 6 0 11 -4 11 -10z m-1777 -195 c-3 -9 -8 -14 -10 -11 -3 3 -2 9 2
15 9 16 15 13 8 -4z m1987 -85 c0 -5 -5 -10 -11 -10 -5 0 -7 5 -4 10 3 6 8 10
11 10 2 0 4 -4 4 -10z m-1987 -75 c-3 -9 -8 -14 -10 -11 -3 3 -2 9 2 15 9 16
15 13 8 -4z m0 -160 c-3 -9 -8 -14 -10 -11 -3 3 -2 9 2 15 9 16 15 13 8 -4z
m-99 -91 c3 -8 2 -12 -4 -9 -6 3 -10 10 -10 16 0 14 7 11 14 -7z m99 -69 c-3
-9 -8 -14 -10 -11 -3 3 -2 9 2 15 9 16 15 13 8 -4z m1651 -11 c3 -8 2 -12 -4
-9 -6 3 -10 10 -10 16 0 14 7 11 14 -7z m-134 -62 c0 -12 -3 -12 -15 -2 -8 7
-15 13 -15 15 0 1 7 2 15 2 8 0 15 -7 15 -15z m-1376 -130 c3 -5 -1 -9 -9 -9
-8 0 -12 4 -9 9 3 4 7 8 9 8 2 0 6 -4 9 -8z"/>
<path d="M2505 6360 c-3 -6 1 -7 9 -4 18 7 21 14 7 14 -6 0 -13 -4 -16 -10z"/>
<path d="M4756 6358 c3 -5 10 -6 15 -3 13 9 11 12 -6 12 -8 0 -12 -4 -9 -9z"/>
<path d="M8580 6360 c-9 -6 -10 -10 -3 -10 6 0 15 5 18 10 8 12 4 12 -15 0z"/>
<path d="M4575 6260 c-3 -5 -1 -10 4 -10 6 0 11 5 11 10 0 6 -2 10 -4 10 -3 0
-8 -4 -11 -10z"/>
<path d="M4326 6162 c-3 -5 1 -9 9 -9 8 0 12 4 9 9 -3 4 -7 8 -9 8 -2 0 -6 -4
-9 -8z"/>
<path d="M8920 6100 c0 -5 5 -10 11 -10 5 0 7 5 4 10 -3 6 -8 10 -11 10 -2 0
-4 -4 -4 -10z"/>
<path d="M7647 6079 c7 -7 15 -10 18 -7 3 3 -2 9 -12 12 -14 6 -15 5 -6 -5z"/>
<path d="M3055 5940 c0 -17 3 -30 8 -30 4 0 6 11 4 25 -4 36 -13 39 -12 5z"/>
<path d="M4110 5961 c0 -10 19 -25 25 -20 1 2 -3 10 -11 17 -8 7 -14 8 -14 3z"/>
<path d="M6635 5951 c-3 -5 -2 -12 3 -15 5 -3 9 1 9 9 0 17 -3 19 -12 6z"/>
<path d="M1130 5896 c0 -2 8 -10 18 -17 15 -13 16 -12 3 4 -13 16 -21 21 -21
13z"/>
<path d="M8953 5871 c0 -11 5 -17 9 -15 11 7 10 34 -1 34 -6 0 -9 -9 -8 -19z"/>
<path d="M7640 5846 c0 -2 8 -10 18 -17 15 -13 16 -12 3 4 -13 16 -21 21 -21
13z"/>
<path d="M1130 5736 c0 -2 8 -10 18 -17 15 -13 16 -12 3 4 -13 16 -21 21 -21
13z"/>
<path d="M3156 5713 c-6 -14 -5 -15 5 -6 7 7 10 15 7 18 -3 3 -9 -2 -12 -12z"/>
<path d="M6635 5689 c-4 -6 -5 -12 -2 -15 2 -3 7 2 10 11 7 17 1 20 -8 4z"/>
<path d="M1136 5598 c3 -5 10 -6 15 -3 13 9 11 12 -6 12 -8 0 -12 -4 -9 -9z"/>
<path d="M1130 5576 c0 -2 8 -10 18 -17 15 -13 16 -12 3 4 -13 16 -21 21 -21
13z"/>
<path d="M6372 5554 c-7 -8 -8 -14 -3 -14 10 0 25 19 20 25 -2 1 -10 -3 -17
-11z"/>
<path d="M6635 5560 c-3 -5 -1 -10 4 -10 6 0 11 5 11 10 0 6 -2 10 -4 10 -3 0
-8 -4 -11 -10z"/>
<path d="M3776 5535 c4 -8 1 -15 -6 -15 -6 0 -8 -5 -4 -11 4 -8 9 -7 15 2 12
19 11 39 -1 39 -5 0 -7 -7 -4 -15z"/>
<path d="M6636 5522 c-3 -5 1 -9 9 -9 8 0 12 4 9 9 -3 4 -7 8 -9 8 -2 0 -6 -4
-9 -8z"/>
<path d="M6635 5471 c-3 -5 -2 -12 3 -15 5 -3 9 1 9 9 0 17 -3 19 -12 6z"/>
<path d="M1130 5416 c0 -2 8 -10 18 -17 15 -13 16 -12 3 4 -13 16 -21 21 -21
13z"/>
<path d="M3150 5400 c0 -5 5 -10 11 -10 5 0 7 5 4 10 -3 6 -8 10 -11 10 -2 0
-4 -4 -4 -10z"/>
<path d="M1136 5278 c3 -5 10 -6 15 -3 13 9 11 12 -6 12 -8 0 -12 -4 -9 -9z"/>
<path d="M3090 5280 c0 -5 5 -10 10 -10 6 0 10 5 10 10 0 6 -4 10 -10 10 -5 0
-10 -4 -10 -10z"/>
<path d="M6635 5280 c3 -5 8 -10 11 -10 2 0 4 5 4 10 0 6 -5 10 -11 10 -5 0
-7 -4 -4 -10z"/>
<path d="M1130 5256 c0 -2 8 -10 18 -17 15 -13 16 -12 3 4 -13 16 -21 21 -21
13z"/>
<path d="M8215 5240 c3 -5 8 -10 11 -10 2 0 4 5 4 10 0 6 -5 10 -11 10 -5 0
-7 -4 -4 -10z"/>
<path d="M3600 5230 c0 -5 5 -10 11 -10 5 0 7 5 4 10 -3 6 -8 10 -11 10 -2 0
-4 -4 -4 -10z"/>
<path d="M3046 5182 c-3 -5 1 -9 9 -9 8 0 12 4 9 9 -3 4 -7 8 -9 8 -2 0 -6 -4
-9 -8z"/>
<path d="M1137 5166 c-3 -8 -2 -18 3 -21 13 -8 20 9 11 24 -6 10 -10 9 -14 -3z"/>
<path d="M3580 5140 c-9 -6 -10 -10 -3 -10 6 0 15 5 18 10 8 12 4 12 -15 0z"/>
<path d="M8010 5051 c0 -6 4 -13 10 -16 6 -3 7 1 4 9 -7 18 -14 21 -14 7z"/>
<path d="M6635 4991 c-3 -5 -2 -12 3 -15 5 -3 9 1 9 9 0 17 -3 19 -12 6z"/>
<path d="M6635 4731 c-3 -5 -2 -12 3 -15 5 -3 9 1 9 9 0 17 -3 19 -12 6z"/>
<path d="M6345 4580 c-3 -6 1 -7 9 -4 18 7 21 14 7 14 -6 0 -13 -4 -16 -10z"/>
<path d="M6530 4576 c0 -2 8 -10 18 -17 15 -13 16 -12 3 4 -13 16 -21 21 -21
13z"/>
<path d="M8060 4500 c0 -6 7 -10 15 -10 8 0 15 2 15 4 0 2 -7 6 -15 10 -8 3
-15 1 -15 -4z"/>
<path d="M6315 4339 c-4 -6 -5 -12 -2 -15 2 -3 7 2 10 11 7 17 1 20 -8 4z"/>
<path d="M6530 4096 c0 -2 8 -10 18 -17 15 -13 16 -12 3 4 -13 16 -21 21 -21
13z"/>
<path d="M3535 4051 c-3 -5 -2 -12 3 -15 5 -3 9 1 9 9 0 17 -3 19 -12 6z"/>
<path d="M6186 3965 c4 -8 8 -15 10 -15 2 0 4 7 4 15 0 8 -4 15 -10 15 -5 0
-7 -7 -4 -15z"/>
<path d="M3317 3783 c-4 -3 -7 -11 -7 -17 0 -6 5 -5 12 2 6 6 9 14 7 17 -3 3
-9 2 -12 -2z"/>
<path d="M8555 3640 c3 -5 8 -10 11 -10 2 0 4 5 4 10 0 6 -5 10 -11 10 -5 0
-7 -4 -4 -10z"/>
<path d="M7515 3580 c3 -5 8 -10 11 -10 2 0 4 5 4 10 0 6 -5 10 -11 10 -5 0
-7 -4 -4 -10z"/>
<path d="M3895 3570 c3 -5 8 -10 11 -10 2 0 4 5 4 10 0 6 -5 10 -11 10 -5 0
-7 -4 -4 -10z"/>
<path d="M7350 3396 c0 -2 8 -10 18 -17 15 -13 16 -12 3 4 -13 16 -21 21 -21
13z"/>
<path d="M7208 3353 c6 -2 9 -10 6 -15 -4 -7 -2 -8 5 -4 13 9 5 26 -12 25 -9
0 -8 -2 1 -6z"/>
<path d="M6530 3296 c0 -2 8 -10 18 -17 15 -13 16 -12 3 4 -13 16 -21 21 -21
13z"/>
<path d="M7730 3296 c0 -2 8 -10 18 -17 15 -13 16 -12 3 4 -13 16 -21 21 -21
13z"/>
<path d="M1635 3240 c3 -5 8 -10 11 -10 2 0 4 5 4 10 0 6 -5 10 -11 10 -5 0
-7 -4 -4 -10z"/>
<path d="M1710 3239 c0 -5 5 -7 10 -4 6 3 10 8 10 11 0 2 -4 4 -10 4 -5 0 -10
-5 -10 -11z"/>
<path d="M4510 3239 c0 -5 5 -7 10 -4 6 3 10 8 10 11 0 2 -4 4 -10 4 -5 0 -10
-5 -10 -11z"/>
<path d="M5150 3239 c0 -5 5 -7 10 -4 6 3 10 8 10 11 0 2 -4 4 -10 4 -5 0 -10
-5 -10 -11z"/>
<path d="M6915 3240 c-3 -5 -1 -10 4 -10 6 0 11 5 11 10 0 6 -2 10 -4 10 -3 0
-8 -4 -11 -10z"/>
<path d="M6995 3240 c3 -5 8 -10 11 -10 2 0 4 5 4 10 0 6 -5 10 -11 10 -5 0
-7 -4 -4 -10z"/>
<path d="M7056 3238 c3 -5 10 -6 15 -3 13 9 11 12 -6 12 -8 0 -12 -4 -9 -9z"/>
<path d="M2125 3180 c-3 -6 1 -7 9 -4 18 7 21 14 7 14 -6 0 -13 -4 -16 -10z"/>
<path d="M2304 3178 c-3 -4 5 -5 17 -3 30 6 36 14 9 12 -12 -1 -24 -5 -26 -9z"/>
</g>
</svg>
